<mxfile host="app.diagrams.net" agent="Mozilla/5.0 (Windows NT 10.0; Win64; x64) AppleWebKit/537.36 (KHTML, like Gecko) Chrome/126.0.0.0 YaBrowser/24.7.0.0 Safari/537.36" version="24.8.3">
  <diagram id="2TKttziCWqF4_FCCptZ_" name="Страница — 1">
    <mxGraphModel dx="1432" dy="951" grid="1" gridSize="10" guides="1" tooltips="1" connect="1" arrows="1" fold="1" page="1" pageScale="1" pageWidth="1169" pageHeight="827" math="0" shadow="0">
      <root>
        <mxCell id="0" />
        <mxCell id="1" parent="0" />
        <mxCell id="VzHMtlCGhFAVTQZ3HAnI-1" value="&lt;div style=&quot;text-align: left;&quot;&gt;&lt;b style=&quot;background-color: initial;&quot;&gt;&lt;font style=&quot;font-size: 21px;&quot;&gt;User Story&lt;/font&gt;&lt;/b&gt;&lt;/div&gt;&lt;div style=&quot;text-align: left; font-size: 6px;&quot;&gt;&lt;br&gt;&lt;/div&gt;&lt;div&gt;&lt;div&gt;&lt;div style=&quot;text-align: left;&quot;&gt;&lt;span style=&quot;font-size: 14px;&quot;&gt;Я, как покупатель на маркетплейсе,&lt;/span&gt;&lt;/div&gt;&lt;div style=&quot;text-align: left;&quot;&gt;&lt;span style=&quot;font-size: 14px;&quot;&gt;хочу, чтобы все купленные мною товары автоматически добавлялись и хранились в личном разделе &lt;b&gt;&lt;font color=&quot;#4f4f4f&quot;&gt;Покупки&lt;/font&gt;&lt;/b&gt;,&lt;/span&gt;&lt;/div&gt;&lt;div style=&quot;text-align: left;&quot;&gt;&lt;span style=&quot;font-size: 14px;&quot;&gt;для того, чтобы я мог быстрее найти нужный товар для повторной покупки или рекомендации&lt;/span&gt;&lt;/div&gt;&lt;/div&gt;&lt;/div&gt;" style="text;html=1;align=center;verticalAlign=middle;resizable=0;points=[];autosize=1;strokeColor=none;fillColor=none;" vertex="1" parent="1">
          <mxGeometry x="210" y="60" width="750" height="100" as="geometry" />
        </mxCell>
        <mxCell id="VzHMtlCGhFAVTQZ3HAnI-9" value="" style="group" vertex="1" connectable="0" parent="1">
          <mxGeometry x="808" y="230" width="270" height="480" as="geometry" />
        </mxCell>
        <mxCell id="VzHMtlCGhFAVTQZ3HAnI-2" value="" style="shape=cylinder3;whiteSpace=wrap;html=1;boundedLbl=1;backgroundOutline=1;size=15;align=left;" vertex="1" parent="VzHMtlCGhFAVTQZ3HAnI-9">
          <mxGeometry y="80" width="250" height="400" as="geometry" />
        </mxCell>
        <mxCell id="VzHMtlCGhFAVTQZ3HAnI-6" value="&lt;b style=&quot;font-size: 21px;&quot;&gt;&lt;font color=&quot;#4f4f4f&quot;&gt;Реляционная БД&lt;br&gt;(PostgreSQL)&lt;/font&gt;&lt;/b&gt;" style="text;html=1;align=center;verticalAlign=middle;resizable=0;points=[];autosize=1;strokeColor=none;fillColor=none;" vertex="1" parent="VzHMtlCGhFAVTQZ3HAnI-9">
          <mxGeometry x="25" width="200" height="60" as="geometry" />
        </mxCell>
        <mxCell id="VzHMtlCGhFAVTQZ3HAnI-24" value="" style="group" vertex="1" connectable="0" parent="VzHMtlCGhFAVTQZ3HAnI-9">
          <mxGeometry x="58" y="200" width="147" height="151" as="geometry" />
        </mxCell>
        <mxCell id="VzHMtlCGhFAVTQZ3HAnI-21" value="&lt;font style=&quot;font-size: 16px;&quot; color=&quot;#4f4f4f&quot;&gt;&lt;span style=&quot;font-size: 16px;&quot;&gt;&lt;/span&gt;&lt;/font&gt;&lt;table style=&quot;font-size: 16px;&quot;&gt;&lt;tbody&gt;&lt;tr&gt;&lt;td&gt;&lt;font color=&quot;#4f4f4f&quot; style=&quot;font-size: 16px;&quot;&gt;PK&lt;/font&gt;&lt;/td&gt;&lt;td&gt;&lt;font color=&quot;#4f4f4f&quot; style=&quot;font-size: 16px;&quot;&gt;purchase_id&lt;/font&gt;&lt;/td&gt;&lt;/tr&gt;&lt;tr&gt;&lt;td&gt;&lt;font color=&quot;#4f4f4f&quot; style=&quot;font-size: 16px;&quot;&gt;FK&lt;/font&gt;&lt;/td&gt;&lt;td&gt;&lt;font color=&quot;#4f4f4f&quot; style=&quot;font-size: 16px;&quot;&gt;user_id&lt;/font&gt;&lt;/td&gt;&lt;/tr&gt;&lt;tr&gt;&lt;td&gt;&lt;font color=&quot;#4f4f4f&quot; style=&quot;font-size: 16px;&quot;&gt;FK&lt;/font&gt;&lt;/td&gt;&lt;td&gt;&lt;font color=&quot;#4f4f4f&quot; style=&quot;font-size: 16px;&quot;&gt;product_id&lt;/font&gt;&lt;/td&gt;&lt;/tr&gt;&lt;tr&gt;&lt;td&gt;&lt;font color=&quot;#4f4f4f&quot; style=&quot;font-size: 16px;&quot;&gt;&lt;br&gt;&lt;/font&gt;&lt;/td&gt;&lt;td&gt;&lt;font color=&quot;#4f4f4f&quot; style=&quot;font-size: 16px;&quot;&gt;amount&lt;/font&gt;&lt;/td&gt;&lt;/tr&gt;&lt;tr&gt;&lt;td&gt;&lt;font color=&quot;#4f4f4f&quot; style=&quot;font-size: 16px;&quot;&gt;&lt;br&gt;&lt;/font&gt;&lt;/td&gt;&lt;td&gt;&lt;font color=&quot;#4f4f4f&quot;&gt;&lt;font style=&quot;font-size: 16px;&quot;&gt;timestamp&lt;/font&gt;&lt;br&gt;&lt;/font&gt;&lt;/td&gt;&lt;/tr&gt;&lt;/tbody&gt;&lt;/table&gt;&lt;div&gt;&lt;div&gt;&lt;font color=&quot;#4f4f4f&quot;&gt;&lt;span style=&quot;font-size: 16px;&quot;&gt;&lt;/span&gt;&lt;/font&gt;&lt;/div&gt;&lt;/div&gt;" style="text;html=1;align=left;verticalAlign=middle;resizable=0;points=[];autosize=1;strokeColor=none;fillColor=none;" vertex="1" parent="VzHMtlCGhFAVTQZ3HAnI-24">
          <mxGeometry x="7" y="21" width="140" height="130" as="geometry" />
        </mxCell>
        <mxCell id="VzHMtlCGhFAVTQZ3HAnI-23" value="&lt;div style=&quot;font-size: 16px;&quot;&gt;&lt;span style=&quot;text-align: left;&quot;&gt;Purchases&lt;/span&gt;&lt;br&gt;&lt;/div&gt;" style="text;html=1;align=center;verticalAlign=middle;resizable=0;points=[];autosize=1;strokeColor=none;fillColor=none;" vertex="1" parent="VzHMtlCGhFAVTQZ3HAnI-24">
          <mxGeometry width="100" height="30" as="geometry" />
        </mxCell>
        <mxCell id="VzHMtlCGhFAVTQZ3HAnI-10" value="" style="group" vertex="1" connectable="0" parent="1">
          <mxGeometry x="438" y="250" width="320" height="460" as="geometry" />
        </mxCell>
        <mxCell id="VzHMtlCGhFAVTQZ3HAnI-4" value="&lt;div style=&quot;font-size: 16px;&quot;&gt;&lt;div style=&quot;font-size: 13px;&quot;&gt;&lt;br&gt;&lt;/div&gt;&lt;/div&gt;" style="rounded=0;whiteSpace=wrap;html=1;align=left;" vertex="1" parent="VzHMtlCGhFAVTQZ3HAnI-10">
          <mxGeometry y="60" width="260" height="400" as="geometry" />
        </mxCell>
        <mxCell id="VzHMtlCGhFAVTQZ3HAnI-7" value="&lt;font color=&quot;#4f4f4f&quot;&gt;&lt;span style=&quot;font-size: 21px;&quot;&gt;&lt;b&gt;Backend&lt;/b&gt;&lt;/span&gt;&lt;/font&gt;&lt;div&gt;&lt;font color=&quot;#4f4f4f&quot;&gt;&lt;span style=&quot;font-size: 21px;&quot;&gt;&lt;b&gt;(Server)&lt;/b&gt;&lt;/span&gt;&lt;/font&gt;&lt;/div&gt;" style="text;html=1;align=center;verticalAlign=middle;resizable=0;points=[];autosize=1;strokeColor=none;fillColor=none;" vertex="1" parent="VzHMtlCGhFAVTQZ3HAnI-10">
          <mxGeometry x="75" y="-20" width="110" height="60" as="geometry" />
        </mxCell>
        <mxCell id="VzHMtlCGhFAVTQZ3HAnI-22" value="&lt;font color=&quot;#4f4f4f&quot;&gt;&lt;span style=&quot;font-size: 16px;&quot;&gt;- проверка корректности&amp;nbsp;&lt;/span&gt;&lt;/font&gt;&lt;div&gt;&lt;font color=&quot;#4f4f4f&quot;&gt;&lt;span style=&quot;font-size: 16px;&quot;&gt;&amp;nbsp; запроса&lt;/span&gt;&lt;/font&gt;&lt;/div&gt;&lt;div&gt;&lt;font color=&quot;#4f4f4f&quot;&gt;&lt;span style=&quot;font-size: 16px;&quot;&gt;&lt;br&gt;&lt;/span&gt;&lt;/font&gt;&lt;/div&gt;&lt;div&gt;&lt;font color=&quot;#4f4f4f&quot;&gt;&lt;span style=&quot;font-size: 16px;&quot;&gt;- проверка авторизации&lt;/span&gt;&lt;/font&gt;&lt;/div&gt;&lt;div&gt;&lt;font color=&quot;#4f4f4f&quot;&gt;&lt;span style=&quot;font-size: 16px;&quot;&gt;&lt;br&gt;&lt;/span&gt;&lt;/font&gt;&lt;/div&gt;&lt;div&gt;&lt;font color=&quot;#4f4f4f&quot;&gt;&lt;span style=&quot;font-size: 16px;&quot;&gt;- обработка запроса&amp;nbsp;&lt;/span&gt;&lt;/font&gt;&lt;/div&gt;" style="text;html=1;align=left;verticalAlign=middle;resizable=0;points=[];autosize=1;strokeColor=none;fillColor=none;" vertex="1" parent="VzHMtlCGhFAVTQZ3HAnI-10">
          <mxGeometry x="30" y="180" width="210" height="130" as="geometry" />
        </mxCell>
        <mxCell id="VzHMtlCGhFAVTQZ3HAnI-11" value="" style="group" vertex="1" connectable="0" parent="1">
          <mxGeometry x="110" y="250" width="215.5" height="460" as="geometry" />
        </mxCell>
        <mxCell id="VzHMtlCGhFAVTQZ3HAnI-3" value="" style="rounded=1;whiteSpace=wrap;html=1;" vertex="1" parent="VzHMtlCGhFAVTQZ3HAnI-11">
          <mxGeometry x="5.5" y="60" width="210" height="400" as="geometry" />
        </mxCell>
        <mxCell id="VzHMtlCGhFAVTQZ3HAnI-8" value="&lt;font color=&quot;#4f4f4f&quot;&gt;&lt;span style=&quot;font-size: 21px;&quot;&gt;&lt;b&gt;Frontend&lt;/b&gt;&lt;/span&gt;&lt;/font&gt;&lt;div&gt;&lt;font color=&quot;#4f4f4f&quot;&gt;&lt;span style=&quot;font-size: 21px;&quot;&gt;&lt;b&gt;(Web/Mobile)&lt;/b&gt;&lt;/span&gt;&lt;/font&gt;&lt;/div&gt;" style="text;html=1;align=center;verticalAlign=middle;resizable=0;points=[];autosize=1;strokeColor=none;fillColor=none;" vertex="1" parent="VzHMtlCGhFAVTQZ3HAnI-11">
          <mxGeometry x="32.75" y="-20" width="150" height="60" as="geometry" />
        </mxCell>
        <mxCell id="VzHMtlCGhFAVTQZ3HAnI-18" value="&lt;div&gt;&lt;div style=&quot;font-size: 16px;&quot;&gt;&lt;font style=&quot;font-size: 16px;&quot;&gt;Покупки&lt;/font&gt;&lt;/div&gt;&lt;/div&gt;" style="text;html=1;align=center;verticalAlign=middle;resizable=0;points=[];autosize=1;strokeColor=none;fillColor=none;" vertex="1" parent="VzHMtlCGhFAVTQZ3HAnI-11">
          <mxGeometry x="71.5" y="101" width="78" height="31" as="geometry" />
        </mxCell>
        <mxCell id="VzHMtlCGhFAVTQZ3HAnI-20" value="&lt;div style=&quot;font-size: 16px;&quot;&gt;&lt;span style=&quot;background-color: initial;&quot;&gt;{&lt;/span&gt;&lt;br&gt;&lt;/div&gt;&lt;div style=&quot;font-size: 16px;&quot;&gt;&lt;span style=&quot;white-space: pre;&quot;&gt;&#x9;&lt;/span&gt;user_id: 12345,&lt;/div&gt;&lt;div style=&quot;font-size: 16px;&quot;&gt;&lt;span style=&quot;white-space: pre;&quot;&gt;&#x9;&lt;/span&gt;purchases: &quot;ALL&quot;&lt;/div&gt;&lt;div style=&quot;font-size: 16px;&quot;&gt;}&lt;/div&gt;" style="text;html=1;align=left;verticalAlign=middle;resizable=0;points=[];autosize=1;strokeColor=none;fillColor=none;" vertex="1" parent="VzHMtlCGhFAVTQZ3HAnI-11">
          <mxGeometry x="25.5" y="194" width="180" height="90" as="geometry" />
        </mxCell>
        <mxCell id="VzHMtlCGhFAVTQZ3HAnI-12" value="" style="shape=flexArrow;endArrow=classic;startArrow=classic;html=1;rounded=0;entryX=0;entryY=0.5;entryDx=0;entryDy=0;" edge="1" parent="1" source="VzHMtlCGhFAVTQZ3HAnI-3" target="VzHMtlCGhFAVTQZ3HAnI-4">
          <mxGeometry width="100" height="100" relative="1" as="geometry">
            <mxPoint x="328" y="510" as="sourcePoint" />
            <mxPoint x="428" y="510" as="targetPoint" />
          </mxGeometry>
        </mxCell>
        <mxCell id="VzHMtlCGhFAVTQZ3HAnI-13" value="" style="shape=flexArrow;endArrow=classic;startArrow=classic;html=1;rounded=0;entryX=0;entryY=0.5;entryDx=0;entryDy=0;" edge="1" parent="1">
          <mxGeometry width="100" height="100" relative="1" as="geometry">
            <mxPoint x="698" y="510" as="sourcePoint" />
            <mxPoint x="808" y="510" as="targetPoint" />
          </mxGeometry>
        </mxCell>
        <mxCell id="VzHMtlCGhFAVTQZ3HAnI-14" value="&lt;b&gt;&lt;font color=&quot;#4f4f4f&quot; style=&quot;font-size: 18px;&quot;&gt;HTTPS&lt;/font&gt;&lt;/b&gt;" style="text;html=1;align=center;verticalAlign=middle;resizable=0;points=[];autosize=1;strokeColor=none;fillColor=none;" vertex="1" parent="1">
          <mxGeometry x="343" y="470" width="80" height="40" as="geometry" />
        </mxCell>
        <mxCell id="VzHMtlCGhFAVTQZ3HAnI-16" value="&lt;b&gt;&lt;font color=&quot;#4f4f4f&quot; style=&quot;font-size: 18px;&quot;&gt;JDBC&lt;/font&gt;&lt;/b&gt;" style="text;html=1;align=center;verticalAlign=middle;resizable=0;points=[];autosize=1;strokeColor=none;fillColor=none;" vertex="1" parent="1">
          <mxGeometry x="718" y="470" width="70" height="40" as="geometry" />
        </mxCell>
      </root>
    </mxGraphModel>
  </diagram>
</mxfile>
